<svg width="381" height="127" viewBox="0 0 381 127" fill="none" xmlns="http://www.w3.org/2000/svg">
    <path d="M282.69 39.7459H306.3C307.338 33.0805 308.972 27.2805 311.201 22.3457C315.666 12.3116 322.338 7.29454 331.219 7.29454C341.098 7.40921 348.293 14.4904 352.804 28.5382C353.924 32.0215 354.847 35.7574 355.573 39.7459H380.053C377.575 31.9511 373.764 24.9182 368.619 18.6474C358.741 6.54915 346.44 0.5 331.718 0.5C325.496 0.5 319.512 1.67543 313.766 4.02628C308.827 6.09044 304.363 8.81399 300.373 12.1969C295.957 15.9812 292.181 20.5109 289.047 25.786C286.497 29.9396 284.378 34.5929 282.69 39.7459Z"
          fill="#4897E9"/>
    <path d="M379.294 89.3197C377.781 93.593 375.861 97.6725 373.534 101.558C370.637 106.489 367.123 110.732 362.991 114.287C353.92 122.429 343.211 126.5 330.863 126.5C324.642 126.5 318.776 125.411 313.267 123.232C302.297 119.046 293.701 111.334 287.479 100.096C285.597 96.7151 284.023 93.1231 282.757 89.3197H306.743C310.082 109.523 318.241 119.651 331.219 119.705C334.211 119.705 337.037 119.075 339.697 117.813C342.404 116.495 344.683 114.66 346.535 112.309C350.743 107.129 353.748 99.466 355.552 89.3197H379.294Z"
          fill="#4897E9"/>
    <path d="M273.663 39.7459H247.697C247.781 38.2093 247.828 36.5797 247.836 34.857C247.644 17.7952 242.198 9.29296 231.499 9.35022C227.133 9.29296 224.686 11.1824 224.158 15.0184L224.014 18.6254V39.7459H199.904V22.8336C199.904 20.4289 199.617 18.0815 199.041 15.7913C197.889 10.8102 193.739 8.09062 186.59 7.63258V2.56557H238.192C249.323 2.79459 257.672 5.25653 263.237 9.95139C270.338 15.7341 273.937 23.8356 274.033 34.2559C274.02 36.16 273.897 37.99 273.663 39.7459Z"
          fill="#4897E9"/>
    <path d="M148.128 89.3197H124.528V102.961C124.622 112.007 121.945 116.96 116.497 117.819L111.495 117.99V123.057H161.161V117.99L157.005 117.819C150.946 116.903 147.987 111.95 148.128 102.961V89.3197Z"
          fill="#4897E9"/>
    <path d="M124.528 39.7459H148.128V9.35022C157.38 9.63649 164.002 11.9553 167.994 16.3066C172.034 20.658 174.781 28.4445 176.237 39.6664H180.393V2.56557H92.2623V39.6664H96.4188C97.6868 28.0438 101.209 19.7705 106.986 14.8466C109.287 12.7855 111.448 11.44 113.467 10.8102C116.191 9.95139 119.878 9.46472 124.528 9.35022V39.7459Z"
          fill="#4897E9"/>
    <path d="M62.7981 39.7459H57.214C57.7933 37.1327 58.251 34.2148 58.5872 30.9924H62.767L62.7981 39.7459Z"
          fill="#4897E9"/>
    <path d="M36.8384 39.7459V16.049C36.7439 13.0717 37.3343 11.211 38.6095 10.4667C39.9319 9.66511 41.7738 9.29296 44.1352 9.35022L52.4239 9.60786L58.0913 10.209C70.2291 12.2129 77.1245 20.114 78.7775 33.9123L79.1317 38.4641H83.3115V2.56557H0V7.63258C4.58119 7.63258 7.8872 8.72042 9.91803 10.8961C11.9961 13.0717 13.0587 17.1368 13.106 23.0913V39.7459H36.8384Z"
          fill="#4897E9"/>
    <path d="M62.9743 89.3197H58.5233L59.5574 96.5492H63L62.9743 89.3197Z" fill="#4897E9"/>
    <path d="M36.8384 89.3197H13.106V103.476C13.0587 108.973 11.9725 112.866 9.84719 115.156C8.24141 116.874 4.95902 117.819 0 117.99V123.057H52.353V117.99C49.3304 117.933 46.7092 117.618 44.4895 117.046C39.1998 116.072 36.6495 111.549 36.8384 103.476V89.3197Z"
          fill="#4897E9"/>
    <path d="M224.014 89.3197H199.904V103.133C199.904 111.836 197.194 116.588 191.772 117.389L186.59 117.99V123.057H237.328V117.99C233.154 117.647 230.036 116.759 227.972 115.328C225.621 113.897 224.374 111.692 224.23 108.715L224.014 103.133V89.3197Z"
          fill="#4897E9"/>
    <path d="M10.1902 66.4606H20.6282V67.7275H10.1902V66.4606ZM10.3554 76.2377H8.95081V56.959H21.84V58.2259H10.3554V76.2377Z"
          fill="white"/>
    <path d="M26.1532 76.2377V56.959H27.5578V76.2377H26.1532Z" fill="white"/>
    <path d="M34.1035 76.2377V56.959H35.2877L49.0307 74.5026H48.3972V56.959H49.8018V76.2377H48.6451L34.8746 58.6941H35.5081V76.2377H34.1035Z"
          fill="white"/>
    <path d="M56.3622 76.2377V56.959H63.991C66.0291 56.959 67.8192 57.3721 69.3615 58.1983C70.9038 59.0246 72.0973 60.1629 72.9419 61.6134C73.8048 63.0639 74.2363 64.7256 74.2363 66.5983C74.2363 68.4711 73.8048 70.1328 72.9419 71.5833C72.0973 73.0337 70.9038 74.1721 69.3615 74.9983C67.8192 75.8246 66.0291 76.2377 63.991 76.2377H56.3622ZM57.7668 74.9708H63.8809C65.6986 74.9708 67.2776 74.6128 68.6179 73.8967C69.9582 73.1806 70.9956 72.1983 71.73 70.9498C72.4645 69.6829 72.8317 68.2324 72.8317 66.5983C72.8317 64.9642 72.4645 63.5229 71.73 62.2744C70.9956 61.0075 69.9582 60.016 68.6179 59.3C67.2776 58.5839 65.6986 58.2259 63.8809 58.2259H57.7668V74.9708Z"
          fill="white"/>
    <path d="M89.5355 76.2377V58.2259H82.5952V56.959H97.8804V58.2259H90.9401V76.2377H89.5355Z" fill="white"/>
    <path d="M115.485 56.959H116.89V76.2377H115.485V56.959ZM102.596 76.2377H101.192V56.959H102.596V76.2377ZM115.651 67.0665H102.431V65.8272H115.651V67.0665Z"
          fill="white"/>
    <path d="M124.69 65.8272H135.128V67.0665H124.69V65.8272ZM124.855 74.9708H136.753V76.2377H123.45V56.959H136.339V58.2259H124.855V74.9708Z"
          fill="white"/>
    <path d="M148.603 76.2377V56.959H155.516C157.131 56.959 158.518 57.216 159.674 57.7301C160.831 58.2442 161.722 58.9878 162.346 59.961C162.97 60.9157 163.282 62.0816 163.282 63.4587C163.282 64.799 162.97 65.9557 162.346 66.9288C161.722 67.9019 160.831 68.6456 159.674 69.1597C158.518 69.6737 157.131 69.9308 155.516 69.9308H149.374L150.008 69.2698V76.2377H148.603ZM150.008 69.3524L149.374 68.6639H155.516C157.59 68.6639 159.16 68.2141 160.225 67.3144C161.309 66.3964 161.85 65.1111 161.85 63.4587C161.85 61.7878 161.309 60.5026 160.225 59.6029C159.16 58.6849 157.59 58.2259 155.516 58.2259H149.374L150.008 57.5374V69.3524Z"
          fill="white"/>
    <path d="M169.089 65.8272H179.527V67.0665H169.089V65.8272ZM169.254 74.9708H181.152V76.2377H167.849V56.959H180.739V58.2259H169.254V74.9708Z"
          fill="white"/>
    <path d="M186.101 76.2377V56.959H193.013C194.629 56.959 196.015 57.216 197.172 57.7301C198.329 58.2442 199.219 58.9878 199.844 59.961C200.468 60.9157 200.78 62.0816 200.78 63.4587C200.78 64.799 200.468 65.9557 199.844 66.9288C199.219 67.8836 198.329 68.6272 197.172 69.1597C196.015 69.6737 194.629 69.9308 193.013 69.9308H186.872L187.505 69.2698V76.2377H186.101ZM199.486 76.2377L194.473 69.2423H196.07L201.083 76.2377H199.486ZM187.505 69.3524L186.872 68.6915H193.013C195.088 68.6915 196.658 68.2324 197.723 67.3144C198.806 66.3964 199.348 65.1111 199.348 63.4587C199.348 61.7878 198.806 60.5026 197.723 59.6029C196.658 58.6849 195.088 58.2259 193.013 58.2259H186.872L187.505 57.5374V69.3524Z"
          fill="white"/>
    <path d="M206.99 66.4606H217.428V67.7275H206.99V66.4606ZM207.155 76.2377H205.751V56.959H218.64V58.2259H207.155V76.2377Z"
          fill="white"/>
    <path d="M224.192 65.8272H234.63V67.0665H224.192V65.8272ZM224.357 74.9708H236.255V76.2377H222.953V56.959H235.842V58.2259H224.357V74.9708Z"
          fill="white"/>
    <path d="M249.276 76.3754C247.843 76.3754 246.512 76.1367 245.282 75.6593C244.07 75.1636 243.015 74.4751 242.115 73.5937C241.215 72.7124 240.518 71.6842 240.022 70.5092C239.526 69.3157 239.278 68.0121 239.278 66.5983C239.278 65.1846 239.526 63.8901 240.022 62.7151C240.518 61.5216 241.215 60.4842 242.115 59.6029C243.033 58.7216 244.098 58.0423 245.31 57.5649C246.521 57.0692 247.843 56.8213 249.276 56.8213C250.634 56.8213 251.901 57.0416 253.076 57.4823C254.27 57.9229 255.289 58.5931 256.133 59.4928L255.252 60.4016C254.426 59.5937 253.508 59.0154 252.498 58.6665C251.506 58.2993 250.451 58.1157 249.331 58.1157C248.1 58.1157 246.953 58.3269 245.888 58.7492C244.841 59.1715 243.923 59.7682 243.134 60.5393C242.363 61.3105 241.757 62.2101 241.316 63.2383C240.894 64.2665 240.683 65.3865 240.683 66.5983C240.683 67.8101 240.894 68.9301 241.316 69.9583C241.757 70.9865 242.363 71.8862 243.134 72.6574C243.923 73.4285 244.841 74.0252 245.888 74.4475C246.953 74.8698 248.1 75.081 249.331 75.081C250.451 75.081 251.506 74.9065 252.498 74.5577C253.508 74.1905 254.426 73.5937 255.252 72.7675L256.133 73.6764C255.289 74.576 254.27 75.2554 253.076 75.7144C251.901 76.1551 250.634 76.3754 249.276 76.3754Z"
          fill="white"/>
    <path d="M264.114 76.2377V58.2259H257.174V56.959H272.459V58.2259H265.519V76.2377H264.114Z" fill="white"/>
    <path d="M290.851 76.3754C289.419 76.3754 288.088 76.1367 286.858 75.6593C285.646 75.1636 284.581 74.4751 283.663 73.5937C282.763 72.6941 282.066 71.6567 281.57 70.4816C281.074 69.2882 280.826 67.9937 280.826 66.5983C280.826 65.2029 281.074 63.9177 281.57 62.7426C282.066 61.5492 282.763 60.5118 283.663 59.6305C284.581 58.7308 285.646 58.0423 286.858 57.5649C288.088 57.0692 289.419 56.8213 290.851 56.8213C292.283 56.8213 293.605 57.0692 294.817 57.5649C296.047 58.0423 297.112 58.7216 298.012 59.6029C298.912 60.4842 299.609 61.5216 300.105 62.7151C300.619 63.8901 300.876 65.1846 300.876 66.5983C300.876 68.0121 300.619 69.3157 300.105 70.5092C299.609 71.6842 298.912 72.7124 298.012 73.5937C297.112 74.4751 296.047 75.1636 294.817 75.6593C293.605 76.1367 292.283 76.3754 290.851 76.3754ZM290.851 75.081C292.081 75.081 293.22 74.8698 294.266 74.4475C295.313 74.0252 296.222 73.4285 296.993 72.6574C297.764 71.8862 298.361 70.9865 298.783 69.9583C299.224 68.9301 299.444 67.8101 299.444 66.5983C299.444 65.3682 299.224 64.2482 298.783 63.2383C298.361 62.2101 297.764 61.3105 296.993 60.5393C296.222 59.7682 295.313 59.1715 294.266 58.7492C293.22 58.3269 292.081 58.1157 290.851 58.1157C289.621 58.1157 288.483 58.3269 287.436 58.7492C286.39 59.1715 285.472 59.7682 284.682 60.5393C283.911 61.3105 283.305 62.2101 282.864 63.2383C282.442 64.2482 282.231 65.3682 282.231 66.5983C282.231 67.8101 282.442 68.9301 282.864 69.9583C283.305 70.9865 283.911 71.8862 284.682 72.6574C285.472 73.4285 286.39 74.0252 287.436 74.4475C288.483 74.8698 289.621 75.081 290.851 75.081Z"
          fill="white"/>
    <path d="M313.122 76.3754C310.735 76.3754 308.853 75.6777 307.476 74.2823C306.099 72.8869 305.411 70.8121 305.411 68.058V56.959H306.815V68.0029C306.815 70.4082 307.366 72.1892 308.468 73.3459C309.569 74.5026 311.13 75.081 313.15 75.081C315.151 75.081 316.702 74.5026 317.804 73.3459C318.906 72.1892 319.456 70.4082 319.456 68.0029V56.959H320.861V68.058C320.861 70.8121 320.173 72.8869 318.795 74.2823C317.418 75.6777 315.527 76.3754 313.122 76.3754Z"
          fill="white"/>
    <path d="M330.557 76.2377V58.2259H323.616V56.959H338.902V58.2259H331.961V76.2377H330.557Z" fill="white"/>
    <path d="M343.452 66.4606H353.89V67.7275H343.452V66.4606ZM343.617 76.2377H342.213V56.959H355.102V58.2259H343.617V76.2377Z"
          fill="white"/>
    <path d="M359.415 76.2377V56.959H360.82V76.2377H359.415Z" fill="white"/>
    <path d="M371.056 76.2377V58.2259H364.116V56.959H379.401V58.2259H372.461V76.2377H371.056Z" fill="white"/>
</svg>
